<svg xmlns="http://www.w3.org/2000/svg" width="981" height="345" viewBox="0 0 981 345" fill="none">
  <path fill-rule="evenodd" clip-rule="evenodd" d="M910.887 -208L-133 38.7374L-63.2662 333.764L-62.905 333.679L-34.9778 344.778L-14.9749 322.35L-14.4039 322.215L13.5233 333.314L33.5261 310.886L34.4105 310.677L62.3377 321.776L82.3405 299.348L82.9115 299.213L110.839 310.312L129.983 288.847L156.712 299.469L176.715 277.042L177.286 276.907L205.213 288.005L224.358 266.54L251.087 277.162L271.089 254.735L271.66 254.6L299.588 265.698L318.732 244.233L345.461 254.856L365.464 232.428L366.035 232.293L393.962 243.392L413.107 221.926L439.836 232.549L459.839 210.121L460.409 209.986L488.337 221.085L507.481 199.62L534.21 210.242L554.213 187.815L554.784 187.68L582.711 198.778L601.856 177.313L628.585 187.935L648.587 165.508L649.159 165.373L677.086 176.471L696.23 155.006L722.959 165.629L742.962 143.201L743.533 143.066L771.46 154.165L790.605 132.7L817.334 143.322L837.336 120.894L837.908 120.759L865.835 131.858L884.979 110.393L911.708 121.015L931.711 98.5877L932.282 98.4528L960.209 109.551L980.212 87.1238L980.621 87.0271L910.887 -208Z" fill="#15FEF8"/>
</svg>