<svg xmlns="http://www.w3.org/2000/svg" width="1932" height="1654" viewBox="0 0 1932 1654" fill="none">
<path fill-rule="evenodd" clip-rule="evenodd" d="M-62.5687 1480.94L3.95678 1505.69L69.296 1490.26L132.218 1513.68L201.299 1497.37L267.824 1522.12L333.163 1506.69L396.085 1530.1L465.167 1513.79L531.692 1538.54L597.031 1523.12L659.953 1546.53L729.035 1530.22L795.56 1554.97L860.899 1539.54L923.82 1562.95L992.902 1546.64L1059.43 1571.39L1124.77 1555.97L1187.69 1579.38L1256.77 1563.07L1323.3 1587.82L1388.63 1572.39L1451.56 1595.8L1520.64 1579.49L1587.16 1604.25L1652.5 1588.82L1715.42 1612.23L1784.51 1595.92L1851.03 1620.67L1916.37 1605.24L1979.29 1628.66L2048.37 1612.35L2114.9 1637.1L2180.24 1621.67L2243.16 1645.08L2312.24 1628.77L2378.77 1653.52L2448.06 1637.16L2381.33 1612.33L2312.25 1628.64L2245.72 1603.89L2180.38 1619.32L2117.46 1595.91L2054.46 1610.78L2142.62 194.504L2192.26 182.783L2255.19 206.194L2324.27 189.884L2390.79 214.635L2460.09 198.274L2393.36 173.445L2324.28 189.755L2257.75 165.003L2192.41 180.43L2129.49 157.019L2061.23 173.136L2059.62 173.036L1993.88 148.577L1928.54 164.004L1865.62 140.593L1797.36 156.711L1795.75 156.611L1730.02 132.152L1664.68 147.579L1601.75 124.168L1533.49 140.285L1531.89 140.185L1466.15 115.726L1400.81 131.153L1337.89 107.742L1269.62 123.859L1268.02 123.759L1202.28 99.3003L1136.94 114.727L1074.02 91.3161L1005.75 107.433L1004.15 107.333L938.411 82.8745L873.073 98.3012L810.152 74.8904L741.888 91.0077L740.283 90.9077L674.544 66.4488L609.205 81.8755L546.284 58.4646L478.02 74.5819L476.414 74.482L410.676 50.023L345.337 65.4499L282.415 42.0389L214.152 58.1561L212.547 58.0563L146.809 33.5973L81.4698 49.024L18.5482 25.6131L-49.7159 41.7304L-51.3213 41.6305L-117.059 17.1717L-186.357 33.533L-142.672 49.7867L-230.496 1460.61L-265.57 1447.56L-334.651 1463.87L-401.177 1439.12L-470.474 1455.48L-403.741 1480.31L-334.659 1464L-268.134 1488.75L-198.837 1472.39L-201.617 1471.36L-195.497 1471.74L-198.384 1472.42L-131.651 1497.25L-62.5687 1480.94ZM-65.1336 1479.85L-59.8896 1480.18L-62.561 1480.81L-65.1336 1479.85ZM198.735 1496.28L203.978 1496.61L201.307 1497.24L198.735 1496.28ZM462.602 1512.71L467.846 1513.03L465.175 1513.66L462.602 1512.71ZM726.47 1529.13L731.714 1529.46L729.043 1530.09L726.47 1529.13ZM990.337 1545.56L995.581 1545.88L992.91 1546.51L990.337 1545.56ZM1254.21 1561.98L1259.45 1562.31L1256.78 1562.94L1254.21 1561.98ZM1518.07 1578.41L1523.32 1578.74L1520.65 1579.37L1518.07 1578.41ZM1781.94 1594.83L1787.18 1595.16L1784.51 1595.79L1781.94 1594.83ZM2045.81 1611.26L2051.05 1611.59L2048.38 1612.22L2045.81 1611.26ZM-389.149 0.233959L-322.624 24.9859L-253.543 8.67558L-186.809 33.5048L-256.107 49.8661L-322.632 25.1142L-391.713 41.4245L-458.447 16.5953L-389.149 0.233959Z" fill="#FAC60E"/>
</svg>