<svg xmlns="http://www.w3.org/2000/svg" width="649" height="669" viewBox="0 0 649 669" fill="none">
  <path d="M52.7884 237.294C50.0435 240.53 47.143 243.655 44.5759 247.03C40.3474 251.751 32.7628 251.468 28.3176 247.225C27.4119 246.263 26.6173 245.207 25.7505 244.211C23.3667 241.459 20.4385 240.158 16.6934 240.575C12.7871 241.003 11.7925 239.652 13.3039 236.015C15.3376 231.122 14.3985 226.863 10.7979 223.081C9.82552 222.058 8.9087 220.896 7.73072 220.173C3.08548 217.304 1.26295 212.75 0.0738549 207.846C-0.126179 207.017 0.107194 205.644 0.685071 205.155C2.40759 203.687 2.90212 201.902 3.26885 199.783C4.05787 195.19 6.45828 191.637 10.9257 189.691C13.3595 188.629 14.4319 186.777 14.9986 184.103C15.7432 180.577 17.6157 177.291 18.4548 173.771C19.8272 167.911 24.428 163.918 29.6789 161.455C34.4408 158.803 40.7253 156.545 46.2262 156.428C47.4486 156.384 48.9044 155.989 49.8157 155.233C52.5217 152.986 55.4778 152.48 58.795 153.159C61.551 153.72 64.3015 154.36 67.0853 154.771C69.7413 155.161 71.2638 153.998 71.8084 151.218C74.6311 136.789 77.5149 122.376 80.4043 107.958C80.8377 105.8 80.3487 104.049 78.6151 102.72C76.687 101.246 76.0091 99.4114 75.8368 96.9314C75.7146 95.2076 74.5255 93.2504 73.2364 91.9826C71.086 89.8752 70.1747 87.6121 70.5526 84.6873C70.8638 82.2685 71.0527 79.8385 71.3638 77.4253C71.8472 73.6664 73.9087 72.1929 77.5649 72.9158C77.8372 72.9714 78.1094 73.1104 78.3817 73.1048C79.9542 73.077 82.2324 75.6627 82.9547 72.5488C84.0493 67.8168 84.2105 66.6992 80.1098 65.1478C78.5706 64.564 76.5814 64.4472 75.5757 63.3796C74.6033 62.3398 73.8531 59.9488 74.4032 58.8756C75.1645 57.4021 77.1482 55.8674 78.7651 55.6728C82.7102 55.2002 86.7442 55.4393 90.7449 55.4671C93.5454 55.4893 96.2625 55.8952 97.635 52.2976C98.3518 50.4182 99.7465 51.6303 100.636 52.698C102.002 54.3327 103.347 55.9842 105.02 58.0249C106.192 56.518 107.014 55.1946 108.103 54.1492C109.043 53.254 110.343 52.0474 111.376 52.1419C112.393 52.2364 113.766 53.6265 114.132 54.7331C115.444 58.6977 116.399 62.7791 117.538 66.9995C117.827 66.8716 118.416 66.6992 118.916 66.3822C121.161 64.9699 123.439 65.1645 124.951 67.1718C128.813 72.2874 135.341 71.0864 140.698 70.6638C141.209 70.6249 141.954 69.8409 142.187 69.2459C143.176 66.7604 145.188 66.0153 147.549 65.3202C153.133 63.6854 158.69 61.806 164.152 59.7875C165.085 59.4483 166.058 58.2084 166.33 57.1964C167.186 53.9824 169.231 52.3754 172.309 51.6359C174.354 51.141 176.326 50.3626 178.332 49.712C178.26 49.2115 178.182 48.7167 178.11 48.2162C176.548 48.194 174.909 48.0661 173.431 48.1551C167.547 48.5054 163.241 44.5463 164.441 38.4243C164.724 35.3493 165.274 32.3022 165.786 29.2551C166.613 24.3341 165.013 21.9264 160.112 20.8365C159.673 20.7364 159.24 20.6141 158.845 20.514C158.445 16.2658 160.262 14.6366 164.035 16.0379C166.441 16.9331 168.897 18.3288 170.948 19.5465C177.754 23.5778 180.633 23.3777 188.445 19.9802C191.023 18.4177 194.274 17.8895 197.285 17.1889C198.969 16.7996 200.792 17.0109 202.547 16.9887C206.081 16.9442 208.776 15.6653 211.138 12.7461C212.594 10.9445 215.222 9.86019 217.528 9.07616C220.528 8.05304 222.651 6.64068 223.029 3.21544C223.295 0.77996 224.646 0.212794 226.963 0.874488C233.697 2.79285 233.714 2.72612 232.697 9.79902C232.364 12.1177 233.508 13.4745 235.509 14.3753C241.298 16.9665 241.649 19.8746 238.937 25.6519C236.687 30.534 235.47 36.2446 234.536 41.5047C234.281 42.7336 235.675 44.6019 236.759 45.7474C238.604 47.7047 239.715 49.7509 239.498 52.5033C239.281 55.2057 240.248 57.4132 242.393 59.1481C245.221 61.4334 247.927 63.88 250.789 66.1209C253.734 68.4229 255.479 67.7001 256.968 64.386C257.562 63.0571 259.168 61.5335 260.513 61.3167C265.336 60.5326 269.581 58.5754 273.582 55.9286C275.754 54.494 277.549 54.3939 279.888 56.1343C281.233 57.1352 283.856 57.2297 285.589 56.6904C288.618 55.7562 291.463 55.2224 294.596 55.9397C295.747 56.201 297.069 55.7062 298.508 55.5338C298.153 53.4431 297.847 51.7193 297.569 49.99C297.291 48.2663 297.919 47.4489 299.764 47.2598C303.242 46.9095 306.715 46.3924 310.155 45.7752C313.761 45.1246 316.334 46.6482 317.2 50.3848C317.578 52.0085 317.512 53.7378 317.789 55.3948C318.706 60.8718 321.473 63.7799 326.858 64.5751C331.164 65.209 334.576 66.5157 335.298 71.5813C335.448 72.6155 336.887 73.5552 337.876 74.3671C340.332 76.3744 341.982 78.6152 342.555 81.9904C342.983 84.5149 344.616 86.9281 346.078 89.1523C347.189 90.8427 348.75 92.2995 350.317 93.6174C353.751 96.5032 355.957 100.04 356.802 104.466C356.963 105.294 357.429 106.334 358.085 106.757C360.563 108.358 360.613 108.28 359.885 111.116C362.353 111.116 364.542 110.732 365.725 108.214C367.142 105.205 368.815 102.292 369.948 99.1834C371.787 94.1456 375.416 91.6156 380.767 92.2829C380.778 94.1567 380.789 96.0695 380.8 97.9879C381.072 98.0769 381.345 98.1714 381.617 98.2603C382.117 96.9203 382.828 95.6191 383.073 94.2346C383.523 91.7101 384.512 90.2199 387.368 90.8538C387.857 90.965 388.563 90.8538 388.946 90.5536C392.28 87.9457 396.036 87.4842 400.292 88.435C397.792 85.4101 394.903 84.8152 391.352 86.1663C389.663 86.8058 387.874 87.1784 386.168 87.6621C384.806 85.1877 385.779 83.4862 387.435 82.869C388.751 82.3741 390.513 83.0803 392.541 83.3083C392.519 80.3279 392.502 77.3085 392.48 74.0279C395.058 74.3281 397.142 74.5728 400.092 74.9175C398.009 76.2465 396.592 77.1473 394.991 78.1648C395.158 79.2881 395.364 80.6393 395.614 82.3296C398.536 81.7235 401.281 81.1508 404.61 80.4613C402.759 84.3203 405.154 85.0098 407.571 85.8661C412.05 87.4453 416.484 89.1579 421.324 90.9539C419.54 96.3809 417.773 101.825 415.812 107.185C415.495 108.047 414.217 108.647 413.272 109.17C410.627 110.632 407.916 111.984 405.227 113.379C406.588 114.491 407.599 115.32 408.855 116.349C409.055 115.954 409.433 115.17 409.833 114.402C411.416 111.377 413.745 109.276 417.29 109.292C419.118 109.298 419.746 108.442 420.224 106.979C420.685 105.556 421.151 104.11 421.84 102.792C423.991 98.6663 427.253 96.4254 432.081 96.1585C437.688 95.5079 445.1 96.7368 449.756 100.118C452.718 102.147 456.074 102.186 459.469 101.93C460.931 101.819 461.858 102.292 463.025 103.409C464.514 104.844 466.743 105.65 468.787 106.312C470.043 106.718 471.555 106.351 473.338 106.323C472.749 108.125 472.221 109.748 471.427 112.161C473.044 111.361 474.027 110.799 475.072 110.377C479.389 108.619 482.412 109.025 483.562 113.718C484.001 115.503 485.374 117.222 486.718 118.573C488.274 120.135 488.724 121.798 488.646 123.877C488.552 126.274 488.691 128.676 488.724 130.7C492.058 128.659 495.17 125.723 498.804 124.784C503.188 122.96 509.85 121.82 513.74 125.429C515.423 126.924 517.851 127.625 520.002 128.548C521.191 129.06 522.669 129.844 523.725 129.527C527.114 128.509 529.848 130.533 532.887 130.906C537.121 131.428 541.466 131.423 545.739 131.201C549.562 131 553.357 130.211 557.169 129.677C560.486 129.21 563.27 130.5 566.215 131.884C574.917 135.982 582.496 142.171 590.342 147.798C591.031 148.282 591.803 148.76 592.27 149.428C597.971 157.084 606.9 160.86 615.957 162.928C621.236 164.319 626.859 165.192 632.293 165.659C639.089 166.326 641.45 168.283 642.289 175.034C642.567 177.263 642.939 179.482 643.345 181.695C643.495 182.507 643.628 183.536 644.173 184.036C648.268 187.745 649.102 194.834 648.868 200C649.841 215.019 645.418 227.43 636.044 238.984C633.382 241.881 631.56 245.535 628.843 248.37C625.364 252.001 621.658 255.566 617.518 258.407C613.423 261.215 610.801 264.646 609.584 269.272C607.489 277.858 602.349 285.592 596.42 291.992C593.681 294.906 592.514 294.956 588.997 292.098C588.052 294.711 586.863 297.047 586.38 299.51C584.841 309.563 584.452 319.238 584.735 329.397C584.907 333.184 585.707 336.982 585.502 340.735C585.146 346.134 584.229 351.495 583.574 356.861C583.09 361.409 582.529 365.98 582.568 370.539C582.601 374.409 581.607 377.601 578.501 379.964C574.222 383.217 572.927 387.187 574.183 392.37C574.967 395.6 574.928 399.048 575.033 402.406C575.1 404.514 574.067 406.237 571.95 407.066C566.654 409.14 564.459 413.36 563.826 418.459C563.32 422.541 561.714 426.077 558.903 429.013C554.235 433.878 550.813 440.384 552.357 447.363C552.552 448.252 551.452 449.881 550.501 450.432C548.112 451.811 545.523 452.934 542.9 453.857C539.211 455.147 536.955 457.371 537.055 461.286C537.116 463.61 536.016 464.889 533.76 465.061C528.859 465.434 523.941 465.823 519.029 465.807C517.812 465.807 516.607 464.283 515.151 463.288C513.695 467.43 510.144 466.674 506.477 465.89C505.194 465.612 503.61 465.395 502.499 465.873C499.926 466.991 497.592 467.58 494.842 466.29C494.214 465.996 492.547 466.985 491.897 467.792C491.497 468.287 491.958 469.616 492.319 470.45C492.597 471.078 493.33 471.517 494.108 472.279C489.396 473.397 483.068 474.92 479.962 479.035C481.012 480.453 484.112 481.248 481.278 483.917C479.967 483.283 478.506 482.644 477.111 481.887C472.866 479.585 470.527 479.975 466.915 483.15C465.581 484.323 463.82 485.352 462.086 485.741C457.669 486.731 454.663 489.566 451.423 492.28C445.961 496.745 440.444 501.116 434.904 505.486C434.448 503.529 434.187 502.406 433.926 501.288C433.626 501.277 433.331 501.26 433.031 501.249C432.942 502.672 432.242 504.468 432.881 505.458C435.004 508.75 432.859 510.39 430.581 512.387C429.831 511.397 429.136 510.474 427.997 508.972C426.38 515.217 424.763 521.461 423.146 527.706C424.291 527.172 424.863 526.905 425.574 526.577C425.519 526.91 425.524 527.177 425.436 527.383C423.541 531.648 423.663 538.571 427.025 542.285C427.453 542.824 427.425 543.831 427.347 544.598C426.941 548.68 426.241 552.744 426.063 556.831C425.913 560.279 424.341 562.942 422.668 565.867C419.279 571.489 414 575.437 409.172 579.724C406.249 582.459 403.76 585.929 402.076 589.499C399.576 595.338 397.431 601.165 395.358 607.17C392.663 614.877 387.468 621.383 381.239 626.559C377.944 629.345 374.471 631.948 371.071 634.633C370.743 634.5 370.415 634.366 370.087 634.233C370.326 633.543 370.354 632.665 370.832 632.198C373.977 629.101 377.105 625.97 380.444 623.073C385.434 618.602 388.057 612.369 390.485 606.275C386.346 604.067 384.995 610.312 381.606 608.555C379.744 612.753 378.183 616.701 376.222 620.46C375.405 622.033 373.977 623.59 372.41 624.474C368.687 626.571 366.337 630.424 366.837 634.478C366.931 635.262 366.998 636.19 366.664 636.863C360.63 648.99 352.74 660.234 342.027 668.669C343.11 662.947 344.122 657.186 345.483 651.526C346.35 647.989 345.811 644.942 343.238 642.412C340.649 639.866 337.854 637.497 334.998 635.223C327.285 629.145 319.534 623.123 311.883 616.968C307.432 613.326 307.621 613.248 302.537 615.722C301.837 616.061 300.109 615.461 299.486 614.777C297.825 612.947 296.613 610.757 295.03 608.855C290.546 603.389 284.139 599.88 277.105 599.119C276.449 599.041 275.81 598.824 274.36 598.485C275.704 596.233 276.61 594.081 278.094 592.39C279.577 590.706 281.533 589.332 283.467 588.087C287.89 585.518 292.613 580.808 294.585 576.021C298.592 567.658 305.954 562.158 312.444 555.847C313.527 554.757 315.278 554.235 316.767 553.573C322.585 550.987 328.447 548.452 334.192 545.621C338.326 543.392 338.926 539.049 339.032 534.806C339.076 532.955 339.176 531.109 339.226 529.257C339.237 528.834 339.221 528.39 339.099 527.984C338.332 525.392 337.409 522.835 336.793 520.21C336.226 517.791 334.898 516.523 332.336 516.101C323.062 514.589 324.452 514.839 325.741 507.427C327.008 500.721 328.369 494.037 329.669 487.342C329.819 486.525 329.258 485.218 328.575 484.701C325.43 482.327 322.235 482.038 318.74 484.462C314.839 487.164 309.743 484.501 309.032 479.407C308.388 474.77 308.121 470.088 307.671 465.423C307.538 464.027 307.393 462.626 307.143 461.247C306.576 458.089 304.554 456.004 301.32 455.887C291.385 455.553 281.466 455.336 271.526 455.325C267.431 455.353 264.514 453.585 264.775 449.609C264.936 447.151 265.408 444.393 266.731 442.386C269.898 438.282 269.47 431.126 266.975 426.956C265.447 424.398 263.897 421.707 265.775 418.342C266.458 417.119 265.497 415.084 265.486 413.422C265.469 410.964 265.125 408.362 265.825 406.082C267.786 400.082 269.914 394.21 272.159 388.31C273.004 386.12 272.709 384.424 271.409 382.55C269.087 379.208 267.036 375.738 262.902 374.053C262.035 373.698 261.385 372.174 261.157 371.084C260.279 366.864 259.524 362.616 258.89 358.356C258.085 352.963 256.223 351.289 250.745 351.661C247.122 351.912 243.527 352.562 239.898 352.779C233.347 353.58 227.896 350.249 225.657 344.033C224.99 342.481 224.023 340.985 223.69 339.373C223.312 337.549 222.851 335.347 223.534 333.774C225.535 329.175 224.562 324.549 224.473 319.911C224.462 319.35 224.373 318.788 224.273 318.238C223.784 315.552 224.218 311.915 222.595 310.381C219.295 306.611 213.349 302.902 208.104 303.68C202.92 304.353 198.586 302.83 194.818 299.404C194.263 298.898 193.512 298.598 192.979 298.075C186.239 291.269 176.315 288.517 167.291 286.426C154.795 283.546 146.143 274.521 144.893 261.593C144.626 259.091 144.637 256.555 144.56 254.031C144.454 250.567 143.009 249.188 139.475 249.01C137.408 248.904 135.291 248.782 133.297 248.281C128.907 247.175 124.973 248.031 121.472 250.656C117.888 253.347 113.999 254.637 109.515 254.031C104.62 252.98 98.7741 256.678 96.5459 260.765C96.4181 260.998 96.2681 261.254 96.1236 261.493C92.9009 266.953 92.4341 267.009 87.6889 262.728C81.9268 257.64 74.1199 256.972 66.7853 257.406C65.6906 257.44 64.6516 258.546 63.5403 259.063C60.662 260.403 58.2949 259.658 57.4337 256.65C55.3722 250.044 53.9331 244.717 53.4997 237.806C53.2607 237.655 53.0218 237.505 52.7884 237.355V237.294Z" fill="#009640" fill-opacity="0.1"/>
</svg>