<svg xmlns="http://www.w3.org/2000/svg" width="499" height="86" viewBox="0 0 499 86" fill="none">
  <path d="M319.274 15.3879C319.056 17.3833 318.348 19.1509 317.149 20.6908C315.972 22.2089 314.424 23.391 312.506 24.2368C310.588 25.0827 308.397 25.5056 305.934 25.5056C303.187 25.5056 300.779 24.9742 298.708 23.9115C296.637 22.8487 295.024 21.3739 293.868 19.487C292.713 17.5785 292.135 15.3662 292.135 12.8504C292.135 10.3345 292.713 8.13316 293.868 6.24626C295.024 4.33768 296.637 2.85203 298.708 1.78929C300.779 0.726562 303.187 0.195195 305.934 0.195195C308.397 0.195195 310.588 0.61812 312.506 1.46397C314.424 2.30982 315.972 3.49183 317.149 5.01002C318.348 6.52821 319.056 8.29582 319.274 10.3128H314.926C314.686 9.01154 314.163 7.89458 313.356 6.96198C312.571 6.02938 311.547 5.31366 310.283 4.81483C309.018 4.29431 307.558 4.03405 305.901 4.03405C303.983 4.03405 302.315 4.3919 300.898 5.10762C299.503 5.82334 298.424 6.8427 297.661 8.16569C296.898 9.48868 296.517 11.0502 296.517 12.8504C296.517 14.6505 296.898 16.2121 297.661 17.5351C298.424 18.8581 299.503 19.8774 300.898 20.5932C302.315 21.3089 303.983 21.6667 305.901 21.6667C307.558 21.6667 309.018 21.4173 310.283 20.9185C311.547 20.4196 312.571 19.7039 313.356 18.7713C314.163 17.817 314.686 16.6892 314.926 15.3879H319.274Z" fill="#000C79"/>
  <path d="M332.978 25.5056C330.733 25.5056 328.76 25.1043 327.06 24.3019C325.382 23.4777 324.063 22.3391 323.104 20.8859C322.166 19.4328 321.698 17.752 321.698 15.8434C321.698 13.9131 322.166 12.2323 323.104 10.8008C324.063 9.34771 325.382 8.21991 327.06 7.41744C328.76 6.59328 330.733 6.1812 332.978 6.1812C335.223 6.1812 337.185 6.59328 338.864 7.41744C340.564 8.21991 341.883 9.34771 342.82 10.8008C343.779 12.2323 344.259 13.9131 344.259 15.8434C344.259 17.752 343.779 19.4328 342.82 20.8859C341.883 22.3391 340.564 23.4777 338.864 24.3019C337.185 25.1043 335.223 25.5056 332.978 25.5056ZM332.978 22.1873C334.417 22.1873 335.648 21.927 336.673 21.4065C337.719 20.8859 338.526 20.1594 339.093 19.2268C339.659 18.2725 339.943 17.1447 339.943 15.8434C339.943 14.5421 339.659 13.4251 339.093 12.4925C338.526 11.5382 337.719 10.8008 336.673 10.2803C335.648 9.75979 334.417 9.49953 332.978 9.49953C331.561 9.49953 330.33 9.75979 329.283 10.2803C328.237 10.8008 327.431 11.5382 326.864 12.4925C326.297 13.4251 326.014 14.5421 326.014 15.8434C326.014 17.1447 326.297 18.2725 326.864 19.2268C327.431 20.1594 328.237 20.8859 329.283 21.4065C330.33 21.927 331.561 22.1873 332.978 22.1873Z" fill="#000C79"/>
  <path d="M346.831 6.63666H351.082L352.194 13.2733V25.0501H347.943V12.6552L346.831 6.63666ZM359.551 6.1812C361.294 6.1812 362.777 6.52821 363.997 7.22224C365.218 7.91627 366.145 8.91394 366.777 10.2152C367.431 11.4949 367.758 13.0456 367.758 14.8674V25.0501H363.507V15.5506C363.507 13.6203 363.049 12.1672 362.134 11.1912C361.24 10.1936 359.921 9.69472 358.177 9.69472C356.978 9.69472 355.921 9.96583 355.006 10.508C354.112 11.0286 353.414 11.766 352.913 12.7203C352.433 13.6745 352.194 14.7915 352.194 16.0711L350.689 15.2578C350.886 13.3492 351.387 11.7226 352.194 10.3779C353 9.03323 354.036 8.00303 355.3 7.28731C356.564 6.5499 357.981 6.1812 359.551 6.1812Z" fill="#000C79"/>
  <path d="M372.014 0H376.264V25.0501H372.014V0ZM383.621 6.1812C385.365 6.1812 386.847 6.52821 388.068 7.22224C389.289 7.91627 390.215 8.91394 390.847 10.2152C391.501 11.4949 391.828 13.0456 391.828 14.8674V25.0501H387.578V15.5506C387.578 13.6203 387.12 12.1672 386.204 11.1912C385.311 10.1936 383.992 9.69472 382.248 9.69472C381.049 9.69472 379.992 9.96583 379.076 10.508C378.182 11.0286 377.485 11.766 376.984 12.7203C376.504 13.6745 376.264 14.7915 376.264 16.0711L374.76 15.2578C374.956 13.3492 375.458 11.7226 376.264 10.3779C377.071 9.03323 378.106 8.00303 379.371 7.28731C380.635 6.5499 382.052 6.1812 383.621 6.1812Z" fill="#000C79"/>
  <path d="M406.193 25.5056C404.035 25.5056 402.117 25.1043 400.438 24.3019C398.76 23.4777 397.441 22.3391 396.482 20.8859C395.523 19.4328 395.043 17.7411 395.043 15.8109C395.043 13.9023 395.49 12.2323 396.384 10.8008C397.299 9.34771 398.553 8.21991 400.144 7.41744C401.757 6.59328 403.599 6.1812 405.67 6.1812C407.741 6.1812 409.528 6.6475 411.032 7.5801C412.558 8.49102 413.735 9.78148 414.564 11.4515C415.392 13.1215 415.806 15.0843 415.806 17.3399H398.378V14.1192H413.681L411.556 15.3229C411.49 14.1083 411.196 13.0673 410.673 12.1997C410.171 11.3322 409.485 10.6707 408.613 10.2152C407.763 9.7381 406.749 9.49953 405.572 9.49953C404.329 9.49953 403.239 9.74894 402.302 10.2478C401.387 10.7466 400.667 11.4515 400.144 12.3624C399.621 13.2516 399.359 14.3144 399.359 15.5506C399.359 16.917 399.665 18.099 400.275 19.0967C400.907 20.0943 401.79 20.8643 402.923 21.4065C404.079 21.927 405.441 22.1873 407.011 22.1873C408.427 22.1873 409.877 21.9704 411.359 21.5366C412.842 21.0811 414.15 20.4522 415.283 19.6497V22.7078C414.15 23.5753 412.765 24.2585 411.13 24.7573C409.517 25.2562 407.872 25.5056 406.193 25.5056Z" fill="#000C79"/>
  <path d="M439.739 17.7953C439.521 19.3135 438.922 20.6582 437.941 21.8294C436.96 22.9789 435.707 23.8789 434.181 24.5296C432.655 25.1803 430.955 25.5056 429.08 25.5056C426.944 25.5056 425.058 25.1043 423.423 24.3019C421.81 23.4777 420.546 22.3391 419.631 20.8859C418.715 19.4328 418.257 17.752 418.257 15.8434C418.257 13.9348 418.715 12.254 419.631 10.8008C420.546 9.34771 421.81 8.21991 423.423 7.41744C425.058 6.59328 426.944 6.1812 429.08 6.1812C430.955 6.1812 432.655 6.50653 434.181 7.15718C435.707 7.80783 436.96 8.71874 437.941 9.88992C438.922 11.0394 439.521 12.3841 439.739 13.924H435.456C435.151 12.5359 434.421 11.4515 433.265 10.6707C432.11 9.88992 430.715 9.49953 429.08 9.49953C427.772 9.49953 426.628 9.75979 425.647 10.2803C424.666 10.7791 423.903 11.5057 423.358 12.46C422.835 13.3926 422.573 14.5204 422.573 15.8434C422.573 17.1447 422.835 18.2725 423.358 19.2268C423.903 20.1811 424.666 20.9185 425.647 21.439C426.628 21.9378 427.772 22.1873 429.08 22.1873C430.737 22.1873 432.143 21.786 433.298 20.9835C434.453 20.1811 435.173 19.1183 435.456 17.7953H439.739ZM428.001 24.7899H430.519L428.786 27.425L427.641 27.3925C428.077 27.1105 428.557 26.8828 429.08 26.7093C429.603 26.5358 430.214 26.449 430.911 26.449C432.284 26.449 433.309 26.7201 433.985 27.2623C434.66 27.8046 434.998 28.542 434.998 29.4746C434.998 30.4072 434.551 31.1879 433.658 31.8169C432.764 32.4676 431.478 32.7929 429.799 32.7929C428.295 32.7929 427.009 32.4784 425.941 31.8494C424.895 31.2422 424.208 30.4722 423.881 29.5396H426.922C427.14 29.8216 427.456 30.071 427.87 30.2879C428.306 30.5264 428.949 30.6457 429.799 30.6457C430.519 30.6457 431.064 30.5373 431.434 30.3204C431.805 30.1035 431.99 29.789 431.99 29.377C431.99 29.0299 431.838 28.7372 431.532 28.4986C431.249 28.2817 430.759 28.1733 430.061 28.1733C429.625 28.1733 429.244 28.2166 428.917 28.3034C428.611 28.4118 428.339 28.5203 428.099 28.6287H425.549L428.001 24.7899Z" fill="#000C79"/>
  <path d="M460.229 25.0501L459.509 18.2183L460.36 15.8434L459.509 13.501L460.229 6.63666H464.61L463.629 15.8434L464.61 25.0501H460.229ZM461.537 15.8434C461.123 17.7737 460.436 19.4654 459.477 20.9185C458.518 22.3716 457.33 23.4994 455.913 24.3019C454.518 25.1043 452.959 25.5056 451.237 25.5056C449.428 25.5056 447.826 25.1043 446.43 24.3019C445.035 23.4777 443.945 22.3391 443.161 20.8859C442.376 19.4328 441.984 17.752 441.984 15.8434C441.984 13.9131 442.376 12.2323 443.161 10.8008C443.945 9.34771 445.035 8.21991 446.43 7.41744C447.826 6.59328 449.428 6.1812 451.237 6.1812C452.959 6.1812 454.518 6.58243 455.913 7.38491C457.33 8.18738 458.518 9.31518 459.477 10.7683C460.458 12.1997 461.144 13.8914 461.537 15.8434ZM446.3 15.8434C446.3 17.0796 446.55 18.1749 447.052 19.1292C447.575 20.0618 448.283 20.7992 449.177 21.3414C450.071 21.8619 451.095 22.1222 452.251 22.1222C453.428 22.1222 454.518 21.8619 455.52 21.3414C456.523 20.7992 457.406 20.0618 458.169 19.1292C458.954 18.1749 459.575 17.0796 460.033 15.8434C459.575 14.6072 458.954 13.5227 458.169 12.5901C457.406 11.6358 456.523 10.8984 455.52 10.3779C454.518 9.8357 453.428 9.56459 452.251 9.56459C451.095 9.56459 450.071 9.8357 449.177 10.3779C448.283 10.8984 447.575 11.6358 447.052 12.5901C446.55 13.5227 446.3 14.6072 446.3 15.8434Z" fill="#000C79"/>
  <path d="M494.619 25.0501L493.899 18.2183L494.749 15.8434L493.899 13.501L494.619 6.63666H499L498.019 15.8434L499 25.0501H494.619ZM495.926 15.8434C495.512 17.7737 494.826 19.4654 493.867 20.9185C492.907 22.3716 491.719 23.4994 490.303 24.3019C488.907 25.1043 487.349 25.5056 485.627 25.5056C483.817 25.5056 482.215 25.1043 480.82 24.3019C479.425 23.4777 478.335 22.3391 477.55 20.8859C476.766 19.4328 476.373 17.752 476.373 15.8434C476.373 13.9131 476.766 12.2323 477.55 10.8008C478.335 9.34771 479.425 8.21991 480.82 7.41744C482.215 6.59328 483.817 6.1812 485.627 6.1812C487.349 6.1812 488.907 6.58243 490.303 7.38491C491.719 8.18738 492.907 9.31518 493.867 10.7683C494.847 12.1997 495.534 13.8914 495.926 15.8434ZM480.689 15.8434C480.689 17.0796 480.94 18.1749 481.441 19.1292C481.965 20.0618 482.673 20.7992 483.567 21.3414C484.461 21.8619 485.485 22.1222 486.64 22.1222C487.817 22.1222 488.907 21.8619 489.91 21.3414C490.913 20.7992 491.796 20.0618 492.559 19.1292C493.343 18.1749 493.965 17.0796 494.422 15.8434C493.965 14.6072 493.343 13.5227 492.559 12.5901C491.796 11.6358 490.913 10.8984 489.91 10.3779C488.907 9.8357 487.817 9.56459 486.64 9.56459C485.485 9.56459 484.461 9.8357 483.567 10.3779C482.673 10.8984 481.965 11.6358 481.441 12.5901C480.94 13.5227 480.689 14.6072 480.689 15.8434Z" fill="#000C79"/>
  <path d="M0 55.8423H9.95638V57.0622C9.95638 59.9251 10.5449 62.1211 11.722 63.6501C12.9318 65.1466 14.9264 65.8948 17.7057 65.8948C20.4196 65.8948 22.3978 65.1954 23.6403 63.7965C24.8828 62.365 25.504 60.3806 25.504 57.843V37.2499H35.6566V58.3798C35.6566 61.7632 34.9045 64.6749 33.4005 67.1148C31.8964 69.5548 29.8037 71.4254 27.1225 72.7267C24.4413 73.9955 21.3024 74.6298 17.7057 74.6298C14.1743 74.6298 11.0681 73.9629 8.3869 72.6291C5.7384 71.2952 3.67846 69.3758 2.20708 66.8708C0.76839 64.3333 0.0490462 61.324 0.0490462 57.843L0 55.8423Z" fill="#000C79"/>
  <path d="M53.1086 74.6298C50.4928 74.6298 48.253 74.0931 46.3893 73.0195C44.5582 71.9459 43.1522 70.4331 42.1713 68.4812C41.1904 66.4967 40.6999 64.1869 40.6999 61.5517V45.9849H50.7053V60.1366C50.7053 62.1861 51.2121 63.7639 52.2257 64.8701C53.2394 65.9762 54.6944 66.5292 56.5909 66.5292C57.9969 66.5292 59.174 66.2527 60.1222 65.6996C61.0704 65.1141 61.8061 64.2845 62.3293 63.2109C62.8524 62.1373 63.114 60.8523 63.114 59.3558L66.2039 60.9661C65.8442 63.9266 65.0268 66.4316 63.7516 68.4812C62.5091 70.4982 60.9723 72.0272 59.1413 73.0683C57.3102 74.1093 55.2993 74.6298 53.1086 74.6298ZM64.9287 73.8491L63.114 62.6741V45.9849H73.1194V64.2357L74.9341 73.8491H64.9287Z" fill="#000C79"/>
  <path d="M111.638 64.7725C111.638 66.9196 110.984 68.7252 109.676 70.1891C108.368 71.6531 106.504 72.7592 104.084 73.5075C101.665 74.2557 98.7547 74.6298 95.3542 74.6298C91.8556 74.6298 88.782 74.2069 86.1335 73.3611C83.5177 72.5152 81.4741 71.3278 80.0027 69.7987C78.5314 68.2697 77.7466 66.4967 77.6485 64.4797H87.8011C88.03 65.2279 88.4714 65.8786 89.1253 66.4316C89.812 66.9521 90.7112 67.3588 91.8229 67.6516C92.9346 67.9119 94.2588 68.042 95.7956 68.042C97.7902 68.042 99.2942 67.8468 100.308 67.4564C101.354 67.066 101.877 66.4804 101.877 65.6996C101.877 65.0815 101.485 64.6261 100.7 64.3333C99.9155 64.0079 98.5749 63.764 96.6785 63.6013L91.7248 63.2109C88.4223 62.9832 85.7902 62.4952 83.8283 61.7469C81.8992 60.9661 80.5096 59.9739 79.6594 58.7702C78.8093 57.5339 78.3842 56.135 78.3842 54.5735C78.3842 52.4589 79.0382 50.7184 80.3461 49.352C81.6867 47.9531 83.5341 46.912 85.8883 46.2289C88.2752 45.5131 91.0545 45.1553 94.2261 45.1553C97.3651 45.1553 100.161 45.5619 102.613 46.3753C105.065 47.1886 107.027 48.3272 108.499 49.7912C109.97 51.2226 110.82 52.9143 111.049 54.8663H100.896C100.733 54.2482 100.373 53.6951 99.8174 53.2071C99.2615 52.6866 98.4932 52.2637 97.5122 51.9383C96.5313 51.613 95.2725 51.4503 93.7357 51.4503C91.9373 51.4503 90.564 51.6455 89.6158 52.0359C88.7003 52.4263 88.2425 52.9794 88.2425 53.6951C88.2425 54.2482 88.5204 54.6873 89.0763 55.0127C89.6648 55.338 90.7439 55.5657 92.3133 55.6959L98.8365 56.1838C102.074 56.379 104.624 56.8508 106.488 57.599C108.351 58.3147 109.676 59.2744 110.46 60.4781C111.245 61.6819 111.638 63.1133 111.638 64.7725Z" fill="#000C79"/>
  <path d="M112.974 53.3535V49.0104L118.664 46.7169L122.98 38.4698H128.669V45.9849H140.44V53.3535H128.669V61.5517C128.669 63.5687 129.078 64.9839 129.895 65.7972C130.713 66.6105 132.201 67.0172 134.359 67.0172C135.732 67.0172 136.942 66.9034 137.988 66.6756C139.067 66.4154 140.048 66.09 140.931 65.6996V73.2147C139.95 73.5725 138.658 73.8979 137.056 74.1907C135.454 74.4834 133.803 74.6298 132.102 74.6298C128.996 74.6298 126.446 74.1581 124.451 73.2147C122.489 72.2712 121.034 70.9211 120.086 69.1644C119.138 67.3751 118.664 65.293 118.664 62.9181V53.3535H112.974Z" fill="#000C79"/>
  <path d="M144.979 45.5457L150.031 46.5217L155.033 45.5457V73.8491H144.979V45.5457ZM149.982 43.2521C148.249 43.2521 146.843 42.8292 145.764 41.9834C144.685 41.105 144.145 39.9175 144.145 38.421C144.145 36.9571 144.685 35.7859 145.764 34.9075C146.843 34.0291 148.249 33.5899 149.982 33.5899C151.78 33.5899 153.202 34.0291 154.249 34.9075C155.328 35.7859 155.867 36.9571 155.867 38.421C155.867 39.9175 155.328 41.105 154.249 41.9834C153.202 42.8292 151.78 43.2521 149.982 43.2521Z" fill="#000C79"/>
  <path d="M193.946 62.0885C193.684 64.5935 192.769 66.7895 191.199 68.6764C189.63 70.5633 187.586 72.0272 185.068 73.0683C182.583 74.1093 179.788 74.6298 176.682 74.6298C173.248 74.6298 170.224 74.0117 167.608 72.7755C164.992 71.5392 162.949 69.815 161.477 67.6028C160.006 65.3906 159.27 62.8368 159.27 59.9414C159.27 57.0134 160.006 54.4434 161.477 52.2311C162.949 50.0189 164.992 48.2947 167.608 47.0584C170.224 45.7897 173.248 45.1553 176.682 45.1553C179.788 45.1553 182.583 45.6921 185.068 46.7656C187.586 47.8067 189.63 49.2707 191.199 51.1576C192.769 53.0119 193.684 55.2079 193.946 57.7454H183.989C183.63 56.0862 182.796 54.8175 181.488 53.9391C180.18 53.0282 178.578 52.5727 176.682 52.5727C175.21 52.5727 173.919 52.8655 172.807 53.4511C171.728 54.0042 170.878 54.8337 170.257 55.9398C169.668 57.0134 169.374 58.3473 169.374 59.9414C169.374 61.5029 169.668 62.8368 170.257 63.9429C170.878 65.0165 171.728 65.846 172.807 66.4316C173.919 66.9847 175.21 67.2612 176.682 67.2612C178.578 67.2612 180.18 66.7895 181.488 65.846C182.829 64.9026 183.662 63.6501 183.989 62.0885H193.946ZM174.72 73.0683H179.673L176.878 77.3138L174.475 77.1674C175.227 76.777 176.044 76.4517 176.927 76.1914C177.81 75.9637 178.807 75.8498 179.919 75.8498C182.142 75.8498 183.826 76.2727 184.97 77.1186C186.115 77.9644 186.687 79.1193 186.687 80.5833C186.687 82.1449 185.935 83.4299 184.431 84.4384C182.927 85.4795 180.703 86 177.761 86C175.177 86 173.019 85.512 171.286 84.536C169.586 83.5926 168.475 82.3075 167.951 80.6809H173.935C174.164 81.0713 174.573 81.3966 175.161 81.6569C175.75 81.9497 176.616 82.0961 177.761 82.0961C178.807 82.0961 179.592 81.9334 180.115 81.6081C180.671 81.3153 180.949 80.9086 180.949 80.3881C180.949 79.9327 180.736 79.5423 180.311 79.2169C179.886 78.9241 179.183 78.7778 178.202 78.7778C177.712 78.7778 177.237 78.8266 176.78 78.9241C176.355 79.0217 175.979 79.1519 175.652 79.3145H170.698L174.72 73.0683Z" fill="#000C79"/>
  <path d="M223.213 73.8491L221.937 63.7965L223.262 59.9414L221.937 56.0862L223.213 45.9849H233.61L231.845 59.8926L233.61 73.8491H223.213ZM225.567 59.9414C225.109 62.8693 224.194 65.4394 222.82 67.6516C221.48 69.8638 219.763 71.588 217.67 72.8243C215.61 74.028 213.256 74.6298 210.608 74.6298C207.861 74.6298 205.442 74.028 203.349 72.8243C201.289 71.588 199.67 69.8638 198.493 67.6516C197.316 65.4068 196.728 62.8368 196.728 59.9414C196.728 56.9809 197.316 54.3945 198.493 52.1823C199.67 49.9701 201.289 48.2459 203.349 47.0096C205.442 45.7734 207.861 45.1553 210.608 45.1553C213.256 45.1553 215.61 45.7734 217.67 47.0096C219.763 48.2134 221.496 49.9213 222.869 52.1335C224.243 54.3132 225.142 56.9158 225.567 59.9414ZM206.88 59.9414C206.88 61.3077 207.158 62.5277 207.714 63.6013C208.303 64.6749 209.104 65.5207 210.117 66.1388C211.131 66.7244 212.292 67.0172 213.6 67.0172C214.973 67.0172 216.264 66.7244 217.474 66.1388C218.684 65.5207 219.747 64.6749 220.662 63.6013C221.578 62.5277 222.264 61.3077 222.722 59.9414C222.264 58.5425 221.578 57.3062 220.662 56.2326C219.747 55.1591 218.684 54.3132 217.474 53.6951C216.264 53.077 214.973 52.7679 213.6 52.7679C212.292 52.7679 211.131 53.077 210.117 53.6951C209.104 54.3132 208.303 55.1591 207.714 56.2326C207.158 57.3062 206.88 58.5425 206.88 59.9414Z" fill="#000C79"/>
  <path d="M267.022 74.6298C263.621 74.6298 260.58 74.0117 257.899 72.7755C255.25 71.5392 253.158 69.815 251.621 67.6028C250.084 65.358 249.316 62.7554 249.316 59.795C249.316 56.8996 250.052 54.362 251.523 52.1823C252.994 49.9701 255.005 48.2459 257.556 47.0096C260.139 45.7734 263.049 45.1553 266.286 45.1553C269.654 45.1553 272.515 45.8873 274.869 47.3512C277.256 48.7827 279.087 50.816 280.362 53.4511C281.67 56.0862 282.324 59.1931 282.324 62.7717H257.409V56.7694H276.684L273.398 58.8678C273.267 57.4363 272.907 56.2326 272.319 55.2567C271.73 54.2482 270.945 53.4836 269.964 52.9631C269.016 52.4426 267.872 52.1823 266.531 52.1823C265.06 52.1823 263.801 52.4751 262.755 53.0607C261.708 53.6463 260.891 54.4596 260.302 55.5007C259.714 56.5092 259.419 57.6966 259.419 59.063C259.419 60.8197 259.812 62.3162 260.596 63.5525C261.414 64.7562 262.591 65.6834 264.128 66.334C265.697 66.9847 267.61 67.31 269.866 67.31C271.926 67.31 273.97 67.0497 275.997 66.5292C278.057 65.9762 279.921 65.2116 281.588 64.2357V70.5795C279.659 71.8808 277.452 72.8893 274.967 73.6051C272.515 74.2882 269.866 74.6298 267.022 74.6298Z" fill="#000C79"/>
  <path d="M286.609 36.2739H296.664V73.8491H286.609V36.2739Z" fill="#000C79"/>
  <path d="M318.606 74.6298C315.206 74.6298 312.165 74.0117 309.484 72.7755C306.835 71.5392 304.743 69.815 303.206 67.6028C301.669 65.358 300.901 62.7554 300.901 59.795C300.901 56.8996 301.636 54.362 303.108 52.1823C304.579 49.9701 306.59 48.2459 309.14 47.0096C311.723 45.7734 314.634 45.1553 317.871 45.1553C321.238 45.1553 324.099 45.8873 326.454 47.3512C328.841 48.7827 330.672 50.816 331.947 53.4511C333.255 56.0862 333.909 59.1931 333.909 62.7717H308.993V56.7694H328.268L324.982 58.8678C324.851 57.4363 324.492 56.2326 323.903 55.2567C323.315 54.2482 322.53 53.4836 321.549 52.9631C320.601 52.4426 319.456 52.1823 318.116 52.1823C316.644 52.1823 315.386 52.4751 314.339 53.0607C313.293 53.6463 312.475 54.4596 311.887 55.5007C311.298 56.5092 311.004 57.6966 311.004 59.063C311.004 60.8197 311.396 62.3162 312.181 63.5525C312.999 64.7562 314.176 65.6834 315.713 66.334C317.282 66.9847 319.195 67.31 321.451 67.31C323.511 67.31 325.554 67.0497 327.582 66.5292C329.642 65.9762 331.505 65.2116 333.173 64.2357V70.5795C331.244 71.8808 329.037 72.8893 326.552 73.6051C324.099 74.2882 321.451 74.6298 318.606 74.6298Z" fill="#000C79"/>
  <path d="M338.194 45.5457L343.246 46.5217L348.249 45.5457V73.8491H338.194V45.5457ZM343.197 43.2521C341.464 43.2521 340.058 42.8292 338.979 41.9834C337.9 41.105 337.36 39.9175 337.36 38.421C337.36 36.9571 337.9 35.7859 338.979 34.9075C340.058 34.0291 341.464 33.5899 343.197 33.5899C344.995 33.5899 346.417 34.0291 347.464 34.9075C348.543 35.7859 349.082 36.9571 349.082 38.421C349.082 39.9175 348.543 41.105 347.464 41.9834C346.417 42.8292 344.995 43.2521 343.197 43.2521Z" fill="#000C79"/>
  <path d="M351.308 53.3535V49.0104L356.998 46.7169L361.314 38.4698H367.003V45.9849H378.774V53.3535H367.003V61.5517C367.003 63.5687 367.412 64.9839 368.229 65.7972C369.047 66.6105 370.534 67.0172 372.692 67.0172C374.066 67.0172 375.275 66.9034 376.322 66.6756C377.401 66.4154 378.382 66.09 379.265 65.6996V73.2147C378.284 73.5725 376.992 73.8979 375.39 74.1907C373.788 74.4834 372.136 74.6298 370.436 74.6298C367.33 74.6298 364.78 74.1581 362.785 73.2147C360.823 72.2712 359.368 70.9211 358.42 69.1644C357.472 67.3751 356.998 65.293 356.998 62.9181V53.3535H351.308Z" fill="#000C79"/>
  <path d="M399.126 74.6298C395.53 74.6298 392.391 74.028 389.709 72.8243C387.028 71.588 384.936 69.8638 383.432 67.6516C381.927 65.4068 381.175 62.8368 381.175 59.9414C381.175 56.9809 381.927 54.3945 383.432 52.1823C384.936 49.9701 387.028 48.2459 389.709 47.0096C392.391 45.7734 395.53 45.1553 399.126 45.1553C402.69 45.1553 405.813 45.7734 408.494 47.0096C411.208 48.2459 413.317 49.9701 414.821 52.1823C416.325 54.3945 417.077 56.9809 417.077 59.9414C417.077 62.8368 416.325 65.4068 414.821 67.6516C413.317 69.8638 411.208 71.588 408.494 72.8243C405.813 74.028 402.69 74.6298 399.126 74.6298ZM399.126 67.2612C400.761 67.2612 402.151 66.9684 403.295 66.3828C404.472 65.7972 405.371 64.9514 405.993 63.8453C406.614 62.7392 406.925 61.4379 406.925 59.9414C406.925 58.3798 406.614 57.0622 405.993 55.9886C405.371 54.8825 404.472 54.0367 403.295 53.4511C402.151 52.8655 400.761 52.5727 399.126 52.5727C397.491 52.5727 396.085 52.8655 394.908 53.4511C393.731 54.0367 392.832 54.8825 392.211 55.9886C391.59 57.0622 391.279 58.3635 391.279 59.8926C391.279 61.4216 391.59 62.7392 392.211 63.8453C392.832 64.9514 393.731 65.7972 394.908 66.3828C396.085 66.9684 397.491 67.2612 399.126 67.2612Z" fill="#000C79"/>
  <path d="M419.779 45.9849H429.981L431.648 55.9398V73.8491H421.643V55.3543L419.779 45.9849ZM444.793 45.5457V54.0367C443.812 53.8415 442.88 53.7114 441.997 53.6463C441.147 53.5487 440.362 53.4999 439.643 53.4999C438.204 53.4999 436.88 53.7927 435.67 54.3783C434.46 54.9313 433.479 55.8585 432.727 57.1598C432.008 58.4611 431.648 60.2016 431.648 62.3813L429.735 60.039C429.997 58.0219 430.389 56.135 430.912 54.3783C431.436 52.589 432.139 51.0112 433.021 49.6448C433.937 48.2459 435.065 47.156 436.406 46.3753C437.746 45.5619 439.381 45.1553 441.31 45.1553C441.866 45.1553 442.438 45.1878 443.027 45.2529C443.615 45.3179 444.204 45.4155 444.793 45.5457Z" fill="#000C79"/>
  <path d="M472.802 73.8491L471.527 63.7965L472.851 59.9414L471.527 56.0862L472.802 45.9849H483.2L481.434 59.8926L483.2 73.8491H472.802ZM475.156 59.9414C474.699 62.8693 473.783 65.4394 472.41 67.6516C471.069 69.8638 469.353 71.588 467.26 72.8243C465.2 74.028 462.846 74.6298 460.197 74.6298C457.451 74.6298 455.031 74.028 452.938 72.8243C450.878 71.588 449.26 69.8638 448.083 67.6516C446.906 65.4068 446.317 62.8368 446.317 59.9414C446.317 56.9809 446.906 54.3945 448.083 52.1823C449.26 49.9701 450.878 48.2459 452.938 47.0096C455.031 45.7734 457.451 45.1553 460.197 45.1553C462.846 45.1553 465.2 45.7734 467.26 47.0096C469.353 48.2134 471.085 49.9213 472.459 52.1335C473.832 54.3132 474.731 56.9158 475.156 59.9414ZM456.47 59.9414C456.47 61.3077 456.748 62.5277 457.303 63.6013C457.892 64.6749 458.693 65.5207 459.707 66.1388C460.72 66.7244 461.881 67.0172 463.189 67.0172C464.562 67.0172 465.854 66.7244 467.064 66.1388C468.273 65.5207 469.336 64.6749 470.252 63.6013C471.167 62.5277 471.854 61.3077 472.312 59.9414C471.854 58.5425 471.167 57.3062 470.252 56.2326C469.336 55.1591 468.273 54.3132 467.064 53.6951C465.854 53.077 464.562 52.7679 463.189 52.7679C461.881 52.7679 460.72 53.077 459.707 53.6951C458.693 54.3132 457.892 55.1591 457.303 56.2326C456.748 57.3062 456.47 58.5425 456.47 59.9414Z" fill="#000C79"/>
  <path d="M488.015 36.2739H498.069V73.8491H488.015V36.2739Z" fill="#000C79"/>
</svg>


