<svg xmlns="http://www.w3.org/2000/svg" width="216" height="218" viewBox="0 0 216 218" fill="none">
  <g clip-path="url(#clip0_2745_7)">
    <path d="M122.449 5.01929C176.923 5.01929 221.243 49.2406 221.243 103.598C221.243 126.54 213.236 148.725 198.64 166.354L208.27 206.793C208.717 208.676 208.019 210.648 206.477 211.825C205.6 212.496 204.543 212.841 203.478 212.841C202.678 212.841 201.873 212.645 201.14 212.25L164.785 192.687C151.518 198.985 137.292 202.177 122.449 202.177C67.9754 202.177 23.6552 157.952 23.6552 103.594C23.6552 49.2364 67.9754 5.01929 122.449 5.01929Z" fill="#00FF5A"/>
    <path d="M193.866 218C194.982 218 196.089 217.639 197.014 216.933C198.628 215.696 199.365 213.631 198.892 211.655L188.794 169.235C204.105 150.744 212.504 127.475 212.504 103.407C212.5 46.3889 166.012 0 108.872 0C51.7316 0 5.24354 46.3889 5.24354 103.407C5.24354 160.425 51.7316 206.814 108.872 206.814C124.439 206.814 139.362 203.465 153.281 196.86L191.413 217.379C192.184 217.792 193.023 217.996 193.862 217.996L193.866 218ZM108.872 10.3105C160.317 10.3105 202.167 52.0754 202.167 103.407C202.167 125.877 194.032 147.573 179.262 164.505C178.167 165.759 177.745 167.463 178.133 169.082L186.174 202.853L155.841 186.529C154.35 185.725 152.561 185.704 151.049 186.469C137.906 193.129 123.715 196.508 108.872 196.508C57.426 196.508 15.5761 154.743 15.5761 103.411C15.5761 52.0796 57.426 10.3105 108.872 10.3105Z" fill="black"/>
    <path d="M112.372 138.584C106.997 138.58 102.354 134.398 102.052 128.992C100.855 103.705 99.6624 78.4127 98.4656 53.1252C98.1632 47.7276 104.416 42.9591 112.372 42.9634C120.328 42.9591 126.58 47.7319 126.277 53.1252L122.691 128.992C122.389 134.398 117.747 138.58 112.372 138.584Z" fill="black"/>
    <path d="M112.371 165.436C118.499 165.436 123.466 160.479 123.466 154.365C123.466 148.25 118.499 143.293 112.371 143.293C106.244 143.293 101.276 148.25 101.276 154.365C101.276 160.479 106.244 165.436 112.371 165.436Z" fill="black"/>
  </g>
  <defs>
    <clipPath id="clip0_2745_7">
      <rect width="216" height="218" fill="white"/>
    </clipPath>
  </defs>
</svg>