<svg xmlns="http://www.w3.org/2000/svg" width="277" height="270" viewBox="0 0 277 270" fill="none">
  <g clip-path="url(#clip0_1756_120)" filter="url(#filter0_f_1756_120)">
    <path d="M158.355 30.0562C106.383 15.3875 52.002 46.3087 37.1338 98.9878C30.8587 121.221 32.43 144.877 41.5337 165.892L21.285 202.489C20.3434 204.193 20.4704 206.293 21.6194 207.849C22.2728 208.736 23.1864 209.354 24.2023 209.64C24.9662 209.856 25.7877 209.883 26.5947 209.698L66.632 200.529C77.5671 210.205 90.2662 217.129 104.428 221.126C156.4 235.795 210.782 204.869 225.65 152.19C240.519 99.5113 210.328 44.725 158.355 30.0562Z" fill="#00FF5A"/>
    <path d="M31.9621 217.229C30.8974 216.929 29.9397 216.28 29.2509 215.348C28.0491 213.715 27.9111 211.514 28.9027 209.727L50.1401 171.336C40.5897 149.293 38.941 124.481 45.5242 101.156C61.1241 45.8997 118.166 13.4616 172.682 28.8484C227.199 44.2351 258.864 101.71 243.268 156.967C227.672 212.225 170.63 244.663 116.114 229.276C101.261 225.084 87.9388 217.82 76.4657 207.671L34.4724 217.288C33.6241 217.48 32.7678 217.452 31.9673 217.226L31.9621 217.229ZM169.862 38.8405C120.779 24.9872 69.4269 54.193 55.3864 103.939C49.2403 125.715 51.0672 148.932 60.5281 169.319C61.2295 170.829 61.1657 172.594 60.353 174.059L43.4439 204.621L76.8495 196.969C78.4914 196.592 80.2039 197.053 81.4373 198.202C92.1557 208.195 104.771 215.291 118.933 219.288C168.016 233.141 219.368 203.936 233.409 154.189C247.449 104.443 218.946 52.6938 169.862 38.8405Z" fill="black"/>
    <path d="M131.436 162.21C136.565 163.654 142.138 160.851 143.906 155.693C151.964 131.509 160.02 107.319 168.079 83.1347C169.843 77.9853 165.183 71.6804 157.591 69.5421C150.001 67.3956 142.73 70.3373 141.544 75.6455L124.214 150.135C123.024 155.456 126.309 160.759 131.436 162.21Z" fill="black"/>
    <path d="M124.091 188.233C118.245 186.583 114.862 180.441 116.534 174.516C118.207 168.59 124.302 165.124 130.148 166.774C135.994 168.424 139.378 174.565 137.705 180.491C136.033 186.417 129.938 189.883 124.091 188.233Z" fill="black"/>
  </g>
  <defs>
    <filter id="filter0_f_1756_120" x="-9.15625" y="-19.9998" width="305.711" height="309.433" filterUnits="userSpaceOnUse" color-interpolation-filters="sRGB">
      <feFlood flood-opacity="0" result="BackgroundImageFix"/>
      <feBlend mode="normal" in="SourceGraphic" in2="BackgroundImageFix" result="shape"/>
      <feGaussianBlur stdDeviation="10" result="effect1_foregroundBlur_1756_120"/>
    </filter>
    <clipPath id="clip0_1756_120">
      <rect width="214.133" height="219.522" fill="white" transform="matrix(-0.962402 -0.271629 -0.271629 0.962402 276.555 58.165)"/>
    </clipPath>
  </defs>
</svg>