<svg xmlns="http://www.w3.org/2000/svg" width="202" height="191" viewBox="0 0 202 191" fill="none">
  <g clip-path="url(#clip0_1756_201)" filter="url(#filter0_f_1756_201)">
    <path d="M80.3964 25.1536C115.404 12.9528 153.833 31.5671 166.06 66.6501C171.221 81.4568 171.065 97.5687 165.651 112.216L180.936 136.159C181.646 137.274 181.641 138.703 180.915 139.808C180.502 140.438 179.901 140.897 179.217 141.135C178.702 141.314 178.141 141.369 177.581 141.278L149.817 136.794C142.708 143.831 134.284 149.077 124.745 152.401C89.7379 164.602 51.3077 145.985 39.0805 110.902C26.8533 75.8192 45.3892 37.3544 80.3964 25.1536Z" fill="#00FF5A"/>
    <path d="M174.2 146.618C174.917 146.368 175.548 145.887 175.983 145.225C176.742 144.065 176.751 142.567 176.003 141.397L159.971 116.281C165.651 100.917 165.815 84.0178 160.401 68.4841C147.573 31.685 107.263 12.1573 70.542 24.9553C33.8213 37.7532 14.3808 78.1053 27.2065 114.905C40.0321 151.706 80.3421 171.233 117.063 158.435C127.067 154.949 135.904 149.445 143.363 142.064L172.484 146.767C173.072 146.861 173.657 146.804 174.196 146.616L174.2 146.618ZM72.8612 31.6098C105.922 20.0872 142.212 37.6694 153.758 70.7993C158.812 85.3016 158.465 101.127 152.782 115.363C152.36 116.417 152.472 117.612 153.086 118.57L165.85 138.565L142.684 134.823C141.546 134.638 140.391 135.025 139.592 135.858C132.643 143.1 124.283 148.459 114.744 151.783C81.6833 163.306 45.3941 145.724 33.8476 112.594C22.301 79.4639 39.8 43.1323 72.8612 31.6098Z" fill="black"/>
    <path d="M103.964 113.615C100.509 114.816 96.5848 113.157 95.1744 109.735C88.7171 93.6826 82.2616 77.6261 75.8043 61.5733C74.3958 58.1574 77.3412 53.6793 82.455 51.9001C87.567 50.1155 92.6586 51.7955 93.6774 55.3441L108.438 105.113C109.46 108.669 107.417 112.408 103.964 113.615Z" fill="black"/>
    <path d="M110.004 130.945C113.942 129.573 116.02 125.261 114.644 121.315C113.269 117.368 108.961 115.282 105.024 116.654C101.086 118.027 99.0085 122.338 100.384 126.285C101.759 130.231 106.067 132.318 110.004 130.945Z" fill="black"/>
  </g>
  <defs>
    <filter id="filter0_f_1756_201" x="-19.4238" y="-19.0391" width="227.848" height="229.078" filterUnits="userSpaceOnUse" color-interpolation-filters="sRGB">
      <feFlood flood-opacity="0" result="BackgroundImageFix"/>
      <feBlend mode="normal" in="SourceGraphic" in2="BackgroundImageFix" result="shape"/>
      <feGaussianBlur stdDeviation="10" result="effect1_foregroundBlur_1756_201"/>
    </filter>
    <clipPath id="clip0_1756_201">
      <rect width="147" height="149" fill="white" transform="translate(0.576172 49.3396) rotate(-19.2146)"/>
    </clipPath>
  </defs>
</svg>