<svg xmlns="http://www.w3.org/2000/svg" width="1108" height="296" viewBox="0 0 1108 296" fill="none">
<path d="M23.4394 276.805C29.83 276.727 29.7014 275.919 36.092 275.841C42.504 275.762 42.311 274.708 48.7231 274.629C55.1352 274.551 55.4783 276.704 61.8903 276.626C68.3024 276.547 68.1308 275.504 74.5643 275.431C80.955 275.353 80.8263 274.5 87.2169 274.422C93.6075 274.343 93.7791 274.618 100.17 274.708C106.689 274.803 106.089 276.11 112.543 276.373C118.998 276.643 119.234 276.2 125.689 276.469C132.123 276.732 131.865 277.198 138.32 277.461C144.754 277.725 145.419 276.536 151.852 276.8C158.243 277.063 158.758 276.149 165.148 276.413C171.56 276.676 171.11 277.461 177.522 277.725C183.934 277.989 183.462 278.847 189.874 279.11C196.286 279.374 196.243 279.475 202.655 279.738C209.046 280.002 209.968 278.347 216.38 278.611C222.771 278.875 221.527 281.118 227.939 281.387C234.351 281.651 235.852 279.609 242.114 280.069C248.462 280.535 248.505 280.753 254.638 281.404C260.771 282.055 259.935 282.638 266.047 283.288C272.159 283.939 270.808 284.87 276.92 285.515C283.01 286.165 285.133 284.679 291.245 285.33C297.314 285.975 296.992 286.193 303.061 286.838C309.13 287.483 306.986 288.981 313.076 289.626C319.145 290.271 322.297 288.078 328.366 288.728C334.457 289.373 331.004 291.79 337.094 292.435C343.163 293.08 346.509 290.742 352.578 291.387C358.647 292.032 356.202 293.742 362.271 294.387C368.361 295.032 368.747 295.957 375.266 295.997C381.807 296.036 383.115 295.739 389.313 295.172C395.511 294.6 394.674 293.933 400.872 293.366C407.048 292.8 405.89 291.858 412.066 291.291C418.242 290.725 418.564 290.994 424.74 290.422C430.873 289.856 431.066 290.013 437.2 289.446C443.354 288.88 441.703 287.556 447.858 286.99C454.013 286.423 454.184 286.564 460.339 285.997C466.515 285.431 467.33 286.087 473.485 285.52C479.618 284.954 478.846 283.967 485.151 283.541C491.327 283.126 492.807 284.87 499.09 284.595C505.373 284.32 504.601 283.013 510.885 282.739C517.147 282.464 517.275 282.677 523.537 282.408C529.799 282.133 530.464 283.266 536.726 282.991C542.945 282.716 541.959 281.039 548.178 280.765C554.418 280.495 554.761 281.09 561.002 280.821C567.242 280.546 568.336 282.413 574.577 282.139C580.838 281.864 579.873 280.254 586.135 279.979C592.354 279.71 592.569 279.963 598.874 279.946C605.5 279.929 605.8 279.419 612.384 279.654C618.968 279.89 618.474 280.933 625.037 281.168C631.599 281.398 632.307 279.918 638.869 280.148C645.431 280.383 644.83 281.623 651.371 281.858C657.89 282.088 658.019 281.808 664.538 282.043C671.058 282.273 670.393 283.67 676.934 283.9C683.474 284.135 683.71 283.625 690.251 283.855C696.792 284.09 697.092 283.479 703.633 283.715C710.152 283.944 709.702 282.862 716.242 282.699C722.44 282.542 723.963 284.662 729.86 284.124C735.757 283.586 734.599 282.655 740.497 282.116C746.373 281.578 746.158 281.41 752.034 280.871C757.889 280.333 756.966 279.576 762.821 279.037C768.654 278.504 767.946 277.927 773.779 277.388C779.634 276.85 780.513 277.562 786.346 277.03C792.201 276.491 792.973 277.125 798.827 276.586C804.682 276.048 805.775 276.929 811.63 276.396C817.463 275.863 816.176 274.803 822.138 274.36C828.057 273.923 827.392 273.025 833.396 272.683C839.401 272.341 840.795 274.147 846.8 273.799C852.783 273.457 851.56 271.87 857.544 271.528C863.527 271.186 864.921 272.992 870.904 272.644C876.844 272.302 875.236 270.21 881.176 269.868C887.138 269.526 888.253 270.956 894.193 270.614C900.155 270.272 900.605 270.849 906.567 270.507C912.55 270.165 911.456 268.763 917.418 268.421C923.38 268.079 923.98 269.071 930.006 268.858C936.311 268.634 936.204 268.875 942.552 268.78C948.899 268.684 948.771 268.062 955.118 267.972C961.445 267.877 961.38 267.54 967.707 267.445C974.033 267.35 974.054 267.535 980.381 267.445C986.664 267.355 986.535 266.66 992.819 266.57C999.124 266.475 999.124 266.52 1005.43 266.424C1011.73 266.335 1012.12 268.309 1018.42 268.219C1024.73 268.124 1024.49 266.963 1030.82 266.867C1037.1 266.772 1037.1 266.845 1043.41 266.789C1049.61 266.733 1049.56 266.29 1055.74 266.273C1061.91 266.251 1061.94 266.598 1068.13 266.576C1074.31 266.553 1074.31 266.576 1080.49 266.559C1086.64 266.542 1086.62 265.869 1092.77 265.847C1098.91 265.83 1098.99 267.77 1105.1 267.754C1106.33 267.754 1107.16 267.692 1108 267.636V0H0V275.857C3.88155 275.639 4.88946 275.123 10.2722 275.055C16.6842 274.977 17.0059 276.884 23.4394 276.805Z" fill="url(#paint0_linear_178_308)"/>
<defs>
<linearGradient id="paint0_linear_178_308" x1="-144.304" y1="316.444" x2="31.0142" y2="-353.945" gradientUnits="userSpaceOnUse">
<stop stop-color="#F5F5F5"/>
<stop offset="0.52" stop-color="#F1F1F1"/>
<stop offset="0.96" stop-color="#E7E7E7"/>
<stop offset="1" stop-color="#E6E6E6"/>
</linearGradient>
</defs>
</svg>