<svg width="54" height="235" viewBox="0 0 54 235" fill="none" xmlns="http://www.w3.org/2000/svg">
<g id="Group">
<path id="Vector" d="M27.3393 183.09C17.087 183.082 8.23205 175.082 7.65526 164.742C5.37246 116.37 3.09779 67.9912 0.814994 19.62C0.238202 9.29543 12.164 0.174005 27.3393 0.182134C42.5146 0.174005 54.4404 9.30356 53.8636 19.62L47.0233 164.742C46.4465 175.082 37.5916 183.082 27.3393 183.09Z" fill="black"/>
<path id="Vector_2" d="M27.3393 234.453C39.0271 234.453 48.5019 224.971 48.5019 213.275C48.5019 201.579 39.0271 192.098 27.3393 192.098C15.6516 192.098 6.17676 201.579 6.17676 213.275C6.17676 224.971 15.6516 234.453 27.3393 234.453Z" fill="black"/>
</g>
</svg>
