<svg xmlns="http://www.w3.org/2000/svg" width="172" height="64" viewBox="0 0 172 64" fill="none">
  <path d="M21.5997 63.0201H149.849C150.866 63.0201 151.854 62.85 152.777 62.5346C153.704 62.2222 154.565 61.7583 155.334 61.1769C156.105 60.5924 156.781 59.8873 157.332 59.0833C157.887 58.2792 158.314 57.3762 158.587 56.3958L161.719 45.1668L164.852 33.9377L167.984 22.7086L171.117 11.4796C171.52 10.0384 171.548 8.6004 171.275 7.25204C170.999 5.90678 170.42 4.6512 169.602 3.57499C168.784 2.49878 167.727 1.60504 166.503 0.98034C165.276 0.355643 163.879 0 162.379 0H9.06966C7.56693 0 6.17265 0.355643 4.94568 0.98034C3.7218 1.60813 2.66214 2.50188 1.84416 3.57499C1.02927 4.64811 0.446762 5.90369 0.174103 7.25204C-0.101654 8.6004 -0.0706635 10.0384 0.332123 11.4796L3.46463 22.7086L6.59712 33.9377L9.72961 45.1668L12.8621 56.3958C13.1348 57.3762 13.5624 58.2792 14.117 59.0833C14.6685 59.8904 15.3439 60.5955 16.1154 61.1769C16.8839 61.7614 17.7483 62.2222 18.6716 62.5346C19.5981 62.85 20.5834 63.0201 21.5997 63.0201Z" fill="url(#paint0_linear_1743_1569)"/>
  <defs>
    <linearGradient id="paint0_linear_1743_1569" x1="85.7246" y1="63.0201" x2="85.7246" y2="-0.00309158" gradientUnits="userSpaceOnUse">
      <stop offset="0.17" stop-color="#D6D6D6"/>
      <stop offset="0.24" stop-color="#DCDCDC"/>
      <stop offset="0.48" stop-color="#EFEFEF"/>
      <stop offset="0.74" stop-color="#FBFBFB"/>
      <stop offset="1" stop-color="white"/>
    </linearGradient>
  </defs>
</svg>