<svg xmlns="http://www.w3.org/2000/svg" width="528" height="65" viewBox="0 0 528 65" fill="none">
<path d="M500.842 64.8642C504.588 64.8642 508.151 64.1065 511.398 62.7365C514.642 61.3665 517.564 59.3873 520.018 56.938C522.472 54.4886 524.458 51.5724 525.827 48.3345C527.2 45.0966 527.959 41.537 527.959 37.7981C527.959 32.6985 526.927 27.837 525.056 23.4116C523.187 18.9892 520.479 15.006 517.133 11.6567C513.784 8.3106 509.796 5.60152 505.362 3.73053C500.925 1.85644 496.045 0.820435 490.914 0.820435H37.092C31.9765 0.820435 27.1027 1.85644 22.6719 3.72434C18.2381 5.59534 14.2473 8.30442 10.8948 11.6506C7.54236 14.9967 4.83124 18.9799 2.95361 23.4054C1.07904 27.8308 0.0441895 32.6923 0.0441895 37.7981C0.0441895 41.537 0.803284 45.0935 2.17279 48.3345C3.54541 51.5724 5.53149 54.4886 7.98541 56.938C10.4394 59.3873 13.3612 61.3696 16.6053 62.7365C19.8493 64.1065 23.4156 64.8642 27.1616 64.8642H500.842Z" fill="url(#paint0_linear_1743_1568)"/>
<defs>
<linearGradient id="paint0_linear_1743_1568" x1="264.002" y1="0.820435" x2="264.002" y2="64.8642" gradientUnits="userSpaceOnUse">
<stop stop-color="#4D4D4D"/>
<stop offset="0.26" stop-color="#494949"/>
<stop offset="0.48" stop-color="#3E3E3E"/>
<stop offset="0.7" stop-color="#2C2C2C"/>
<stop offset="0.9" stop-color="#141414"/>
</linearGradient>
</defs>
</svg>